# 
# Wavefront OBJ file
# Converted by the 3D Exploration 1.5.30
# XDimension Software, LLC
# http://www.xdsoft.com/explorer/
# 
mtllib Lightdefender.mtl
# object LightDefender
g LightDefender
v 2.22712 0 16.5
v -2.22712 0 16.5
v 3.33728 10.5472 6.89159
v 2.44489 6.56525 18.6599
v -2.44489 6.56525 18.6599
v -3.58728 10.5472 6.89159
v -3.31518 10.0433 -1.59363
v 3.35458 10.0434 -1.59517
v 2.44489 -6.56525 18.6599
v 3.33728 -10.5472 6.89159
v -2.44489 -6.56525 18.6599
v -3.58728 -10.5472 6.89159
v -3.31518 -10.0433 -1.59363
v 3.35458 -10.0434 -1.59517
v -4.44 -1.46519 18.0056
v -4.44 1.46519 18.0056
v -4.25 -10.8786 6.84702
v 4.25 -10.8786 6.84702
v 4.25 10.8786 6.84702
v 3.145 6.78385 19.5197
v -3.145 6.78385 19.5197
v -4.25 10.8786 6.84702
v 4.25 -10.3879 -1.89926
v -4.25 -10.3879 -1.89926
v -4.25 10.3879 -1.89926
v 4.25 10.3879 -1.89926
v -5.76 -4.605 2.51408
v -5.76 4.605 2.51408
v -4.78336 -1.39538 -13.1365
v 5.29757 1.14538 -12.3865
v -4.78336 1.14538 -13.1365
v 3.1074 -7.20102 -16
v -3.1074 -7.20102 -16
v -3.1074 7.20102 -16
v 3.1074 7.20102 -16
v 3.145 -6.78385 19.5197
v -3.145 -6.78385 19.5197
v -2.33452 -12.8334 -4.01083
v 2.33452 -12.8334 -4.01083
v 1.82697 -10.4629 -16
v -1.82696 -10.4629 -16
v 2.33452 12.8334 -4.01083
v -2.33452 12.8334 -4.01083
v -1.82696 10.4629 -16
v 1.82697 10.4629 -16
v 1.14503 9.46294 -17.5
v -1.14503 9.46294 -17.5
v -2.1 7.02861 -17.5
v -2.1 -7.05835 -17.5
v -1.14503 -9.46294 -17.5
v 1.14503 -9.46294 -17.5
v 2.1 -7.02861 -17.5
v 2.1 7.05835 -17.5
v 6.83929 3.96704 9.6348
v 4.62144 1.43671 17.9327
v 4.62144 -1.39025 17.9327
v 6.83695 -4.01767 9.64354
v 8.44075 1.5 1.11405
v 8.79199 -1.39025 7.35513
v 8.79199 1.43671 7.35513
v 8.44343 -1.5 1.11476
v 5.29757 -1.14538 -12.3865
vt 0 1
vt 0.603017 0.511276
vt 0.919383 0.717933
vt 1 0.584514
vt 0.919383 0.776322
vt 0.603017 0.988724
vt 1 0.915486
vt 0.478766 0.644173
vt 0.478766 0.855827
vt 0.0426291 0.716329
vt 0.0426291 0.783671
vt 0.35678 0.5
vt 0.35678 1
vt 0 0.594101
vt 0 0.905899
vt 0.5 0.105215
vt 0 0.108543
vt 0.5 0.25
vt 0.0748745 0
vt 0.5 0.105214
vt 0 0.108543
vt 0.0748741 0
vt 0.603017 0.262603
vt 0.278048 0.426225
vt 0.35678 0.25
vt 0.898268 0.5
vt 0.518162 0.490892
vt 0 0.355175
vt 0.0446793 0.49371
vt 0.342475 0.49371
vt 1 0.34446
vt 0.898269 0.5
vt 0.278294 0.427525
vt 0.518182 0.490892
vt 0.603017 0.262603
vt 0.356779 0.25
vt 0 0.355175
vt 0.0446787 0.492518
vt 0.342474 0.492518
vt 1 0.34446
vt 0.803995 0
vt 0.698766 0.25
vt 0.802946 0.25
vt 0.696005 0
vt 0.5 0.209266
vt 0.5 0.0357283
vt 1 0.209266
vt 1 0.0357283
vt 1 0.118207
vt 0.55472 1
vt 0.554696 0
vt 1 0.881793
vt 0.348874 0.0365817
vt 0.348874 0.978903
vt 0 0.0365817
vt 0 0.978903
vt 1 0.22535
vt 0 0
vt 1 0.77465
vt 0.837302 1
vt 0.835881 0
vt 0.952212 0.772625
vt 0.162698 0
vt 0.164119 1
vt 0.0477882 0.227375
vt 0.952212 0.227375
vt 0.0477882 0.772625
vt 3.97723e-08 1
vt 1 0.891293
vt 1 0.108707
vt 3.97723e-08 0
# 71 texture verticies
vn -0.996646 -0.0749235 -0.0329096
vn -0.996957 -0.0521373 -0.057958
vn -0.999455 9.34483e-10 -0.0330024
vn -0.995193 -0.0976238 -0.00782357
vn 0.995116 -0.0885045 -0.0437168
vn 0.999238 -0.0117396 -0.0372213
vn 0.995333 -0.0583119 -0.0768899
vn 0.988669 -0.148355 0.0228936
vn 0.988669 0.148355 0.0228936
vn 0.994254 0.103568 -0.0270595
vn -0.995193 0.0976238 -0.00782357
vn -0.996646 0.0749235 -0.0329096
vn 0.995333 0.0583119 -0.0768899
vn -0.996957 0.0521373 -0.057958
vn 0 -0.312512 -0.949914
vn 0 0.312512 -0.949914
vn 8.6199e-05 0.813889 0.58102
vn 4.73926e-05 0.874346 0.485304
vn 0 0.874352 0.485293
vn 8.6199e-05 -0.813889 0.58102
vn 4.73926e-05 -0.874346 0.485304
vn 8.61904e-05 -0.742595 0.669741
vn 8.61904e-05 0.742595 0.669741
vn 0 -0.874352 0.485293
vn -0.94451 -0.310097 -0.108351
vn -0.973932 -0.101608 -0.202812
vn -0.930998 -0.148794 -0.333323
vn -0.970236 0.0663342 -0.232898
vn -0.945098 0.308229 -0.108554
vn -0.942964 0.195232 -0.269636
vn -0.99522 -0.0974703 -0.0060684
vn -0.9951 0.0971707 0.0182522
vn -0.990181 -0.0880491 0.108574
vn -0.986258 0.11735 0.116294
vn -0.976568 -0.198455 0.0832501
vn -0.976568 0.198455 0.0832501
vn -0.969838 -0.194199 0.147314
vn -0.969838 0.194199 0.147314
vn -0.881148 -0.448742 -0.149028
vn -0.83472 -0.532422 -0.140604
vn 0.881148 -0.448742 -0.149028
vn 0.93845 -0.312705 -0.146718
vn 0.931191 -0.347285 -0.110802
vn 0.83472 -0.532422 -0.140604
vn 0.881148 0.448742 -0.149028
vn 0.931376 0.34682 -0.1107
vn 0.93845 0.312705 -0.146718
vn -0.881148 0.448742 -0.149028
vn -0.83472 0.532422 -0.140604
vn 0.83472 0.532422 -0.140604
vn 0.891801 -0.444355 0.0850882
vn 0.917517 -0.385611 0.0972945
vn 0.532242 -0.833922 -0.145918
vn 0.670643 -0.736177 -0.0909953
vn 0.918909 -0.296169 0.260556
vn 0.909274 -0.259601 0.325313
vn 0.963309 -0.241668 -0.116761
vn 0.853512 -0.495995 0.159705
vn 0.524869 0.838874 -0.144234
vn 0.889373 0.449339 0.0843245
vn 0.659463 0.746077 -0.0920697
vn 0.963389 0.241445 -0.116556
vn 0.918553 0.383224 0.0969522
vn 0.91942 0.295623 0.259373
vn 0.907695 0.266738 0.323944
vn 0.8452 0.510901 0.156898
vn 0.00578048 -0.140547 0.990057
vn 0.00721903 0.0944859 0.9955
vn 0.00750492 -0.14286 0.989715
vn 0.00451497 0.186542 0.982437
vn 0.00269497 0.277363 0.960761
vn 0 0.273811 0.961784
vn 0.00340986 -0.278305 0.960487
vn 0 -0.273811 0.961784
vn 0.973934 0.000407402 -0.22683
vn 0.989875 0.000424684 -0.141938
vn 0.989884 0.000849378 -0.141876
vn 0.973952 0 -0.226754
vn 0.996232 0.000298681 0.0867269
vn 0.973059 0 0.230554
vn 0.9303 0 0.3668
vn 0 0.969168 -0.246401
vn 0 -0.969168 -0.246401
vn 0 -0.83205 -0.5547
vn 0 0.83205 -0.5547
vn -0.774432 0.303901 -0.554886
vn -0.801554 0.204785 -0.56176
vn -0.774472 0.304013 -0.55477
vn -0.820309 0.102354 -0.562687
vn -0.812565 -0.154928 -0.561904
vn -0.813059 -0.156001 -0.560891
vn -0.775205 -0.306086 -0.552601
vn -0.774472 -0.304013 -0.55477
vn 0.823012 0.123915 -0.554343
vn 0.775205 0.306086 -0.552601
vn 0.774472 0.304013 -0.55477
vn 0.774432 -0.303901 -0.554886
vn 0.827804 -0.123036 -0.547359
vn 0.774472 -0.304013 -0.55477
vn 0.820309 -0.102354 -0.562687
vn 0.813059 0.156001 -0.560891
vn 0 -0.653554 0.75688
vn 0 0.653554 0.75688
vn -0.396138 -0.912716 0.100117
vn -0.358646 -0.931901 -0.054158
vn -0.373959 -0.925989 -0.051949
vn -0.396138 0.912716 0.100117
vn -0.423652 0.869814 0.252868
vn -0.526186 0.821534 0.21957
vn -0.358646 0.931901 -0.054158
vn -0.334131 0.935506 0.11483
vn -0.423652 -0.869814 0.252868
vn -0.334131 -0.935506 0.11483
vn -0.373959 0.925989 -0.051949
vn -0.526186 -0.821534 0.21957
vn 0.444298 0.890614 0.0969815
vn 0.473439 0.848237 0.237381
vn 0.438783 0.891954 0.109032
vn 0.405254 0.913072 -0.0454834
vn 0.360476 0.931304 -0.0522472
vn 0.526186 0.821534 0.21957
vn 0.444298 -0.890614 0.0969815
vn 0.473439 -0.848237 0.237381
vn 0.526186 -0.821534 0.21957
vn 0.438783 -0.891954 0.109032
vn 0.405254 -0.913072 -0.0454834
vn 0.360476 -0.931304 -0.0522472
vn 8.0238e-05 0.662464 0.749094
vn 0 0.66345 0.74822
vn 8.0238e-05 -0.662464 0.749094
vn 0 -0.66345 0.74822
vn 0 0 -1
vn 0.855179 0 -0.518332
vn 0 0.98101 -0.193959
vn 0 -0.98101 -0.193959
# 135 normals
usemtl Material__1
f 10/1/1 9/1/2 1/1/3
f 14/1/4 10/1/1 1/1/3
f 12/1/5 2/1/6 11/1/7
f 2/1/6 11/1/7 12/1/5
f 13/1/8 2/1/6 12/1/5
f 7/1/9 6/1/10 2/1/6
f 8/1/11 1/1/3 3/1/12
f 2/1/6 6/1/10 5/1/13
f 3/1/12 1/1/3 4/1/14
usemtl Material__2
f 1/1/15 11/1/15 2/1/15
f 5/1/16 1/1/16 2/1/16
f 1/1/16 5/1/16 4/1/16
f 11/1/15 1/1/15 9/1/15
usemtl Material__3
f 8/1/17 2/1/18 1/1/19
f 14/1/20 2/1/21 13/1/22
f 8/1/17 7/1/23 2/1/18
f 14/1/20 1/1/24 2/1/21
usemtl Material__4
f 24/2/25 29/3/26 33/4/27
f 31/5/28 25/6/29 34/7/30
f 29/3/26 24/2/25 27/8/31
f 25/6/29 31/5/28 28/9/32
f 33/4/27 31/5/28 34/7/30
f 31/5/28 33/4/27 29/3/26
f 31/5/28 27/8/31 28/9/32
f 27/8/31 31/5/28 29/3/26
f 15/10/33 28/9/32 27/8/31
f 28/9/32 15/10/33 16/11/34
f 17/12/35 27/8/31 24/2/25
f 22/13/36 25/6/29 28/9/32
f 17/12/35 15/10/33 27/8/31
f 15/10/33 17/12/35 37/14/37
f 16/11/34 22/13/36 28/9/32
f 16/11/34 21/15/38 22/13/36
f 41/16/39 24/17/25 33/18/27
f 41/16/39 38/19/40 24/17/25
f 40/16/41 32/18/42 23/17/43
f 40/16/41 23/17/43 39/19/44
f 45/20/45 26/21/46 35/18/47
f 44/20/48 34/18/30 25/21/29
f 44/20/48 25/21/29 43/22/49
f 45/20/45 42/22/50 26/21/46
f 23/23/43 57/24/51 18/25/52
f 62/26/53 61/27/54 57/24/51
f 57/24/51 36/28/55 18/25/52
f 36/28/55 57/24/51 56/29/56
f 57/24/51 23/23/43 62/26/57
f 61/27/54 59/30/58 57/24/51
f 57/24/51 59/30/58 56/29/56
f 23/23/43 32/31/42 62/26/57
f 30/32/59 54/33/60 58/34/61
f 26/35/46 54/33/60 30/32/62
f 54/33/60 26/35/46 19/36/63
f 20/37/64 54/33/60 19/36/63
f 54/33/60 20/37/64 55/38/65
f 55/38/65 60/39/66 54/33/60
f 54/33/60 60/39/66 58/34/61
f 26/35/46 30/32/62 35/40/47
f 16/41/67 56/42/68 55/43/69
f 56/42/68 16/41/67 15/44/70
f 15/44/70 36/45/71 56/42/68
f 15/44/70 37/46/72 36/45/71
f 20/47/73 16/41/67 55/43/69
f 16/41/67 20/47/73 21/48/74
usemtl Material__5
f 62/49/75 58/50/76 61/51/77
f 58/50/76 62/49/75 30/52/78
f 59/53/79 58/50/76 60/54/80
f 59/53/79 61/51/77 58/50/76
f 56/55/81 60/54/80 55/56/81
f 60/54/80 56/55/81 59/53/79
usemtl Material__3
f 5/1/82 20/1/82 4/1/82
f 36/1/83 11/1/83 9/1/83
f 11/1/83 36/1/83 37/1/83
f 20/1/82 5/1/82 21/1/82
f 41/1/84 51/1/84 40/1/84
f 46/1/85 44/1/85 45/1/85
f 44/1/85 46/1/85 47/1/85
f 47/1/86 34/1/87 44/1/88
f 34/1/87 47/1/86 48/1/89
f 48/1/89 33/1/90 34/1/87
f 33/1/90 48/1/89 49/1/91
f 33/1/90 50/1/92 41/1/93
f 33/1/90 49/1/91 50/1/92
f 35/1/94 46/1/95 45/1/96
f 41/1/84 50/1/84 51/1/84
f 51/1/97 32/1/98 40/1/99
f 32/1/98 51/1/97 52/1/100
f 52/1/100 35/1/94 32/1/98
f 35/1/94 52/1/100 53/1/101
f 35/1/94 53/1/101 46/1/95
usemtl Material__6
f 38/57/102 23/1/102 24/58/102
f 23/1/102 38/57/102 39/59/102
f 42/59/103 25/58/103 26/1/103
f 25/58/103 42/59/103 43/57/103
usemtl Material__3
f 18/1/104 14/1/105 23/1/106
f 19/1/107 4/1/108 20/1/109
f 19/1/107 8/1/110 3/1/111
f 19/1/107 3/1/111 4/1/108
f 18/1/104 9/1/112 10/1/113
f 18/1/104 10/1/113 14/1/105
f 19/1/107 26/1/114 8/1/110
f 18/1/104 36/1/115 9/1/112
f 22/1/116 5/1/117 6/1/118
f 22/1/116 7/1/119 25/1/120
f 22/1/116 6/1/118 7/1/119
f 22/1/116 21/1/121 5/1/117
f 17/1/122 11/1/123 37/1/124
f 17/1/122 12/1/125 11/1/123
f 17/1/122 13/1/126 12/1/125
f 17/1/122 24/1/127 13/1/126
f 26/1/128 7/1/23 8/1/17
f 7/1/23 26/1/128 25/1/129
f 13/1/22 23/1/130 14/1/20
f 23/1/130 13/1/22 24/1/131
usemtl Material__7
f 53/60/132 48/61/132 46/62/132
f 49/63/132 52/64/132 50/65/132
f 48/61/132 53/60/132 52/64/132
f 46/62/132 48/61/132 47/66/132
f 50/65/132 52/64/132 51/67/132
f 48/61/132 52/64/132 49/63/132
usemtl Material__3
f 32/1/98 30/1/133 62/1/133
f 30/1/133 32/1/98 35/1/94
usemtl Material__8
f 42/68/134 45/69/134 44/70/134
f 41/70/135 39/68/135 38/71/135
f 39/68/135 41/70/135 40/69/135
f 42/68/134 44/70/134 43/71/134
# object LightDefenderShoulder(1)
g LightDefenderShoulder_1_
v 1.44388e-10 15.9718 3.49968
v 2.78514 14.4811 2.85097
v 2.78514 6.93033 -0.676104
v -2.78514 6.93033 -0.676104
v -2.78514 14.4811 2.85097
v 2.78514 6.47391 15.6651
v 1.44388e-10 7.83757 16.5172
v -2.78514 6.47391 15.6651
v -1.52514 7.72521 -1.94818
v 1.52514 7.72521 -1.94818
v 1.52514 14.6015 1.28542
v -1.52514 14.6015 1.28542
v 1.52514 5.00912 16.6365
v -1.52514 5.00912 16.6365
vt 0.236373 0.226201
vt 0.236373 0.773799
vt 0.999998 0.773799
vt 2.36476e-06 0.5
vt 0.162747 2.20537e-06
vt 0.236373 0.226201
vt 0.236373 0.773799
vt 0.999998 0.999998
vt 0.162747 0.999998
vt 0.999998 2.20537e-06
vt 0.999998 0.226201
vt 3.10643e-08 1
vt 1 0.5
vt 0 0.5
vt 0.984375 1
vt 0.984375 0
vt 3.10643e-08 0
vt 0.933146 0.999997
vt 1.45164e-06 2.86102e-06
vt 0.999999 2.80142e-06
# 20 texture verticies
vn -0.110754 0.699989 -0.705514
vn 0.147338 0.777407 -0.611498
vn 0 0.425547 -0.904936
vn 0 0.191515 0.98149
vn -0.392819 0.249142 0.885224
vn -0.201781 0.14962 0.967935
vn 0.201781 0.14962 0.967935
vn 0.761296 0.275169 -0.58712
vn 0.759129 0.275491 -0.58977
vn 0.763454 0.274845 -0.584464
vn 0 0.927545 -0.373711
vn 0.407666 0.875105 -0.260768
vn -0.761296 0.275169 -0.58712
vn -0.763454 0.274845 -0.584464
vn -0.759129 0.275491 -0.58977
vn 0.392819 0.249142 0.885224
vn -0.407666 0.875105 -0.260768
vn 0.5 0.734431 0.458924
vn 0.5 0.734431 0.458923
vn 0.5 0.734431 0.458924
vn -0.5 0.734431 0.458924
vn -0.5 0.734431 0.458924
vn -0.5 0.734431 0.458924
vn -1 0 0
vn 1 0 0
# 25 normals
usemtl Material__9
f 74/72/136 73/73/137 72/74/138
f 69/75/139 70/76/140 76/77/141
f 76/77/141 75/78/142 69/75/139
f 65/79/143 73/73/143 64/80/144
f 73/73/143 65/79/143 72/74/145
f 73/73/137 63/75/146 64/80/147
f 66/81/148 74/72/148 71/82/149
f 66/81/148 67/76/150 74/72/148
f 74/72/136 72/74/138 71/82/138
f 75/78/142 68/80/151 69/75/139
f 63/75/146 74/72/136 67/76/152
f 74/72/136 63/75/146 73/73/137
f 68/83/153 63/84/153 69/85/154
f 63/84/153 68/83/153 64/86/155
f 69/85/156 67/87/156 70/88/157
f 67/87/156 69/85/156 63/84/158
usemtl Material__10
f 66/89/159 70/90/159 67/91/159
f 64/91/160 68/90/160 65/89/160
# object LightDefenderArm(1)
g LightDefenderArm_1_
v 4.25 5.46065 -18.5503
v 3.145 12.5422 -7.26232
v -3.145 12.5422 -7.26232
v -4.25 5.46065 -18.5503
v 2.635 8.59236 -21.1632
v 1.9499 14.0496 -8.17221
v -1.9499 14.0496 -8.17221
v -2.635 8.59236 -21.1632
v -4.25 -1.55479 -23.7964
v 4.25 -1.55479 -23.7964
v 2.635 1.30641 -25.2313
v -2.635 1.30641 -25.2313
vt 0 0.87
vt 0.620017 0
vt 0.620017 1
vt 1 1
vt 1 0
vt 0 0.13
vt 0.64635 1
vt 0.620497 0.439592
vt 0.986091 0.442009
vt 0.00126163 0.442897
vt 0 0.687074
vt 7.25356e-05 0.19
vt 7.25356e-05 0.81
vt 0.655467 0
vt 1 1
vt 1 0
vt 0.655467 1
vt 0 0.81
vt 0 0.19
# 19 texture verticies
vn 0 -0.847099 0.531435
vn 0 -0.735427 0.677604
vn 0 -0.59887 0.800846
vn -0.895455 0.3511 -0.27366
vn -0.893259 0.240696 -0.379677
vn -0.929579 0.295394 -0.220512
vn 0.895455 0.3511 -0.27366
vn 0.929579 0.295394 -0.220512
vn 0.893259 0.240696 -0.379677
vn 0.85372 0.253861 -0.454662
vn -0.876612 0.453462 -0.161011
vn -0.821224 0.540248 -0.183639
vn 0.876612 0.453462 -0.161011
vn 0.821224 0.540248 -0.183639
vn -0.85372 0.253861 -0.454662
vn 0 -0.448296 -0.893885
vn 0 0.487508 -0.873119
vn 0 0.921956 -0.387295
vn 0 0.51678 0.856118
# 19 normals
usemtl Material__11
f 78/92/161 80/93/162 77/94/162
f 86/95/163 80/93/162 85/96/163
f 80/93/162 78/92/161 79/97/161
f 80/93/162 86/95/163 77/94/162
usemtl Material__12
f 84/98/164 85/96/165 80/99/166
f 81/98/167 77/99/168 86/96/169
f 81/98/167 86/96/169 87/100/170
f 84/98/164 80/99/166 79/101/171
f 84/98/164 79/101/171 83/102/172
f 81/98/167 78/101/173 77/99/168
f 81/98/167 82/102/174 78/101/173
f 84/98/164 88/100/175 85/96/165
usemtl Material__13
f 86/95/176 88/103/176 87/104/176
f 88/103/176 86/95/176 85/96/176
usemtl Material__14
f 84/105/177 87/106/177 88/107/177
f 87/106/177 84/105/177 81/108/177
f 82/92/178 84/105/178 83/97/178
f 84/105/178 82/92/178 81/108/178
usemtl Material__15
f 79/96/179 82/109/179 83/110/179
f 82/109/179 79/96/179 78/95/179
# object LightDefenderGun(1)
g LightDefenderGun_1_
v -2.47119 0.2 20.5921
v -0.743736 2.57764 20.5921
v 2.05135 1.66946 20.5921
v 2.05135 -1.26946 20.5921
v -0.743736 -2.17764 20.5921
v -2.47119 0.2 11.3421
v -0.743736 2.57764 11.3421
v 2.05135 1.66946 11.3421
v 2.05135 -1.26946 11.3421
v -0.743736 -2.17764 11.3421
v -0.0711932 0.2 9.84209
vt 0.676032 0.999998
vt 0.676032 1.84774e-06
vt 1.0849 0.5
vt 0.0144736 0.809016
vt 0.0144736 0.190984
vt 0 0.809017
vt 1 1
vt 1 0.809017
vt 0 1
vt 1 0
vt 0 0.5
vt 0 0
vt 1 0.190983
vt 0 0.190983
vt 1 0.5
vt 0.530675 0.5
vt 0.381966 0
vt 1 0.190983
vt 1 0.809017
vt 0.381966 1
# 20 texture verticies
vn 0 0 1
vn 0.309017 -0.951057 0
vn -0.809017 0.587785 0
vn 0.309017 0.951056 0
vn 1 0 0
vn -0.809017 -0.587785 0
vn -0.494597 0.359346 -0.791356
vn 0.577129 0 -0.816653
vn 0.182278 -0.560994 -0.807502
vn -0.494597 -0.359346 -0.791356
vn 0.182278 0.560994 -0.807502
# 11 normals
usemtl Material__16
f 93/111/180 90/112/180 89/113/180
f 90/112/180 93/111/180 92/114/180
f 90/112/180 92/114/180 91/115/180
usemtl Material__17
f 92/116/181 98/117/181 97/118/181
f 98/117/181 92/116/181 93/119/181
f 95/120/182 89/121/182 90/122/182
f 90/122/183 96/123/183 95/120/183
f 96/123/183 90/122/183 91/124/183
f 91/124/184 97/118/184 96/123/184
f 97/118/184 91/124/184 92/116/184
f 93/119/185 94/125/185 98/117/185
f 94/125/185 93/119/185 89/121/185
f 89/121/182 95/120/182 94/125/182
usemtl Material__18
f 99/126/186 94/121/186 95/127/186
f 99/126/187 96/128/187 97/129/187
f 99/126/188 97/129/188 98/130/188
f 99/126/189 98/130/189 94/121/189
f 99/126/190 95/127/190 96/128/190
# object LightDefenderShoulder(2)
g LightDefenderShoulder_2_
v 2.95384e-07 -15.9718 3.49968
v -2.78514 -14.4811 2.85097
v -2.78514 -6.93034 -0.676105
v 2.78514 -6.93033 -0.676105
v 2.78514 -14.4811 2.85097
v -2.78514 -6.47391 15.6651
v 2.95384e-07 -7.83757 16.5172
v 2.78514 -6.47391 15.6651
v 1.52514 -7.72521 -1.94818
v -1.52514 -7.72521 -1.94818
v -1.52514 -14.6015 1.28542
v 1.52514 -14.6015 1.28542
v -1.52514 -5.00912 16.6365
v 1.52514 -5.00912 16.6365
vt 0.236373 0.226201
vt 0.236373 0.773799
vt 0.999998 0.773799
vt 2.36476e-06 0.5
vt 0.162747 2.20537e-06
vt 0.236373 0.226201
vt 0.236373 0.773799
vt 0.999998 0.999998
vt 0.162747 0.999998
vt 0.999998 2.20537e-06
vt 0.999998 0.226201
vt 3.10643e-08 1
vt 1 0.5
vt 0 0.5
vt 0.984375 1
vt 0.984375 0
vt 3.10643e-08 0
vt 0.933146 0.999997
vt 1.45164e-06 2.86102e-06
vt 0.999999 2.80142e-06
# 20 texture verticies
vn 0.110754 -0.699989 -0.705514
vn -0.147338 -0.777407 -0.611497
vn -2.10422e-09 -0.425547 -0.904936
vn 1.05615e-08 -0.191515 0.98149
vn 0.392819 -0.249142 0.885224
vn 0.201781 -0.14962 0.967935
vn -0.201781 -0.14962 0.967935
vn -0.761296 -0.275169 -0.58712
vn -0.759129 -0.275491 -0.58977
vn -0.763454 -0.274845 -0.584464
vn 1.09591e-07 -0.927545 -0.373711
vn -0.407666 -0.875105 -0.260768
vn 0.761296 -0.275169 -0.58712
vn 0.763454 -0.274845 -0.584464
vn 0.759129 -0.275491 -0.58977
vn 3.11577e-08 -0.425547 -0.904936
vn -0.392819 -0.249142 0.885224
vn 0.407667 -0.875105 -0.260768
vn -0.5 -0.734431 0.458924
vn -0.5 -0.734431 0.458923
vn -0.5 -0.734431 0.458924
vn 0.5 -0.734431 0.458923
vn 0.5 -0.734431 0.458923
vn 0.5 -0.734431 0.458923
vn 1 7.33242e-08 -4.58181e-08
vn -1 -7.33242e-08 4.58181e-08
# 26 normals
usemtl Material__9
f 111/131/191 110/132/192 109/133/193
f 106/134/194 107/135/195 113/136/196
f 113/136/196 112/137/197 106/134/194
f 102/138/198 110/132/198 101/139/199
f 110/132/198 102/138/198 109/133/200
f 110/132/192 100/134/201 101/139/202
f 103/140/203 111/131/203 108/141/204
f 103/140/203 104/135/205 111/131/203
f 111/131/191 109/133/193 108/141/206
f 112/137/197 105/139/207 106/134/194
f 100/134/201 111/131/191 104/135/208
f 111/131/191 100/134/201 110/132/192
f 105/142/209 100/143/209 106/144/210
f 100/143/209 105/142/209 101/145/211
f 106/144/212 104/146/212 107/147/213
f 104/146/212 106/144/212 100/143/214
usemtl Material__10
f 103/148/215 107/149/215 104/150/215
f 101/150/216 105/149/216 102/148/216
# object LightDefenderArm(2)
g LightDefenderArm_2_
v 4.25 5.46065 -18.5503
v 3.145 12.5422 -7.26232
v -3.145 12.5422 -7.26232
v -4.25 5.46065 -18.5503
v 2.635 8.59236 -21.1632
v 1.9499 14.0496 -8.17221
v -1.9499 14.0496 -8.17221
v -2.635 8.59236 -21.1632
v -4.25 -1.55479 -23.7964
v 4.25 -1.55479 -23.7964
v 2.635 1.30641 -25.2313
v -2.635 1.30641 -25.2313
vt 0 0.87
vt 0.620017 0
vt 0.620017 1
vt 1 1
vt 1 0
vt 0 0.13
vt 0.64635 1
vt 0.620497 0.439592
vt 0.986091 0.442009
vt 0.00126163 0.442897
vt 0 0.687074
vt 7.25356e-05 0.19
vt 7.25356e-05 0.81
vt 0.655467 0
vt 1 1
vt 1 0
vt 0.655467 1
vt 0 0.81
vt 0 0.19
# 19 texture verticies
vn 0 -0.847099 0.531435
vn 0 -0.735427 0.677604
vn 0 -0.59887 0.800846
vn -0.895455 0.3511 -0.27366
vn -0.893259 0.240696 -0.379677
vn -0.929579 0.295394 -0.220512
vn 0.895455 0.3511 -0.27366
vn 0.929579 0.295394 -0.220512
vn 0.893259 0.240696 -0.379677
vn 0.85372 0.253861 -0.454662
vn -0.876612 0.453462 -0.161011
vn -0.821224 0.540248 -0.183639
vn 0.876612 0.453462 -0.161011
vn 0.821224 0.540248 -0.183639
vn -0.85372 0.253861 -0.454662
vn 0 -0.448296 -0.893885
vn 0 0.487508 -0.873119
vn 0 0.921956 -0.387295
vn 0 0.51678 0.856118
# 19 normals
usemtl Material__11
f 115/151/217 117/152/218 114/153/218
f 123/154/219 117/152/218 122/155/219
f 117/152/218 115/151/217 116/156/217
f 117/152/218 123/154/219 114/153/218
usemtl Material__12
f 121/157/220 122/155/221 117/158/222
f 118/157/223 114/158/224 123/155/225
f 118/157/223 123/155/225 124/159/226
f 121/157/220 117/158/222 116/160/227
f 121/157/220 116/160/227 120/161/228
f 118/157/223 115/160/229 114/158/224
f 118/157/223 119/161/230 115/160/229
f 121/157/220 125/159/231 122/155/221
usemtl Material__13
f 123/154/232 125/162/232 124/163/232
f 125/162/232 123/154/232 122/155/232
usemtl Material__14
f 121/164/233 124/165/233 125/166/233
f 124/165/233 121/164/233 118/167/233
f 119/151/234 121/164/234 120/156/234
f 121/164/234 119/151/234 118/167/234
usemtl Material__15
f 116/155/235 119/168/235 120/169/235
f 119/168/235 116/155/235 115/154/235
# object LightDefenderGun(2)
g LightDefenderGun_2_
v -2.47119 0.1 20.5921
v -0.743736 2.47764 20.5921
v 2.05135 1.56946 20.5921
v 2.05135 -1.36946 20.5921
v -0.743736 -2.27764 20.5921
v -2.47119 0.1 11.3421
v -0.743736 2.47764 11.3421
v 2.05135 1.56946 11.3421
v 2.05135 -1.36946 11.3421
v -0.743736 -2.27764 11.3421
v -0.0711932 0.1 9.84209
vt 0.676032 0.999998
vt 0.676032 1.84774e-06
vt 1.0849 0.5
vt 0.0144736 0.809016
vt 0.0144736 0.190984
vt 0 0.809017
vt 1 1
vt 1 0.809017
vt 0 1
vt 1 0
vt 0 0.5
vt 0 0
vt 1 0.190983
vt 0 0.190983
vt 1 0.5
vt 0.530675 0.5
vt 0.381966 0
vt 1 0.190983
vt 1 0.809017
vt 0.381966 1
# 20 texture verticies
vn 0 0 1
vn 0.309017 -0.951057 0
vn -0.809017 0.587785 0
vn 0.309017 0.951056 0
vn 1 0 0
vn -0.809017 -0.587785 0
vn -0.494597 0.359346 -0.791356
vn 0.577129 0 -0.816653
vn 0.182278 -0.560994 -0.807502
vn -0.494597 -0.359346 -0.791356
vn 0.182278 0.560994 -0.807502
# 11 normals
usemtl Material__16
f 130/170/236 127/171/236 126/172/236
f 127/171/236 130/170/236 129/173/236
f 127/171/236 129/173/236 128/174/236
usemtl Material__17
f 129/175/237 135/176/237 134/177/237
f 135/176/237 129/175/237 130/178/237
f 132/179/238 126/180/238 127/181/238
f 127/181/239 133/182/239 132/179/239
f 133/182/239 127/181/239 128/183/239
f 128/183/240 134/177/240 133/182/240
f 134/177/240 128/183/240 129/175/240
f 130/178/241 131/184/241 135/176/241
f 131/184/241 130/178/241 126/180/241
f 126/180/238 132/179/238 131/184/238
usemtl Material__18
f 136/185/242 131/180/242 132/186/242
f 136/185/243 133/187/243 134/188/243
f 136/185/244 134/188/244 135/189/244
f 136/185/245 135/189/245 131/180/245
f 136/185/246 132/186/246 133/187/246
